<svg xmlns="http://www.w3.org/2000/svg" viewBox="0 0 64 64">
  <defs>
    <linearGradient id="bg" x1="0%" y1="0%" x2="100%" y2="100%">
      <stop offset="0%" stop-color="#f59e0b"/>
      <stop offset="100%" stop-color="#b45309"/>
    </linearGradient>
    <linearGradient id="heart" x1="0%" y1="0%" x2="0%" y2="100%">
      <stop offset="0%" stop-color="#fda4af"/>
      <stop offset="100%" stop-color="#fb7185"/>
    </linearGradient>
  </defs>
  <rect width="64" height="64" rx="14" fill="url(#bg)"/>
  <rect width="64" height="30" rx="14" fill="white" fill-opacity="0.12"/>
  <!-- Dos "2" levemente inclinados -->
  <text x="20" y="44" text-anchor="middle" font-family="Georgia, serif" font-weight="700" font-size="30" fill="white" transform="rotate(-4, 20, 30)">2</text>
  <text x="44" y="44" text-anchor="middle" font-family="Georgia, serif" font-weight="700" font-size="30" fill="white" transform="rotate(4, 44, 30)">2</text>
  <!-- Corazón pequeño -->
  <g transform="translate(28.7, 48.9) scale(0.28)">
    <path d="M12 21.593c-5.63-5.539-11-10.297-11-14.402 0-3.791 3.068-5.191 5.281-5.191 1.312 0 4.151.501 5.719 4.457 1.59-3.968 4.464-4.447 5.726-4.447 2.54 0 5.274 1.621 5.274 5.181 0 4.069-5.136 8.625-11 14.402z" fill="url(#heart)"/>
  </g>
</svg>
